<mxfile host="app.diagrams.net" modified="2020-11-11T13:00:44.025Z" agent="5.0 (Windows)" etag="U8t2GO3JufL7i0gT18S4" version="13.9.6" type="github">
  <diagram id="prtHgNgQTEPvFCAcTncT" name="Page-1">
    <mxGraphModel dx="1303" dy="1842" grid="1" gridSize="10" guides="1" tooltips="1" connect="1" arrows="1" fold="1" page="1" pageScale="1" pageWidth="827" pageHeight="1169" math="0" shadow="0">
      <root>
        <mxCell id="0" />
        <mxCell id="1" parent="0" />
        <mxCell id="dNxyNK7c78bLwvsdeMH5-11" value="" style="swimlane;html=1;startSize=0;horizontal=1;containerType=tree;glass=0;swimlaneFillColor=none;" parent="1" vertex="1">
          <mxGeometry x="40" y="-280" width="790" height="630" as="geometry" />
        </mxCell>
        <UserObject label="Superviseur des données médicales" name="Tessa Miller" position="CFO" location="Office 1" email="me@example.com" placeholders="1" id="dNxyNK7c78bLwvsdeMH5-12">
          <mxCell style="whiteSpace=wrap;fontSize=17;" parent="dNxyNK7c78bLwvsdeMH5-11" vertex="1">
            <mxGeometry x="250" y="340" width="180" height="70" as="geometry" />
          </mxCell>
        </UserObject>
        <mxCell id="dNxyNK7c78bLwvsdeMH5-15" value="" style="endArrow=blockThin;endFill=1;fontSize=11;edgeStyle=elbowEdgeStyle;elbow=vertical;rounded=0;exitX=0.5;exitY=0;exitDx=0;exitDy=0;entryX=0.494;entryY=1;entryDx=0;entryDy=0;entryPerimeter=0;" parent="dNxyNK7c78bLwvsdeMH5-11" target="dNxyNK7c78bLwvsdeMH5-12" edge="1">
          <mxGeometry relative="1" as="geometry">
            <mxPoint x="339" y="479" as="sourcePoint" />
            <mxPoint x="339" y="419" as="targetPoint" />
          </mxGeometry>
        </mxCell>
        <UserObject label="" name="Evan Valet" position="HR Director" location="Office 4" email="me@example.com" placeholders="1" link="https://www.draw.io" id="dNxyNK7c78bLwvsdeMH5-16">
          <mxCell style="" parent="dNxyNK7c78bLwvsdeMH5-11" vertex="1">
            <mxGeometry x="250" y="480" width="180" height="80" as="geometry" />
          </mxCell>
        </UserObject>
        <mxCell id="yGAbrnF77CtUYg8j1XF4-1" value="" style="edgeStyle=orthogonalEdgeStyle;rounded=0;orthogonalLoop=1;jettySize=auto;html=1;" edge="1" source="dNxyNK7c78bLwvsdeMH5-12" target="yGAbrnF77CtUYg8j1XF4-2" parent="dNxyNK7c78bLwvsdeMH5-11">
          <mxGeometry relative="1" as="geometry" />
        </mxCell>
        <UserObject label="Responsable d&#39;activités d&#39;Epidemiologie" name="Tessa Miller" position="CFO" location="Office 1" email="me@example.com" placeholders="1" id="yGAbrnF77CtUYg8j1XF4-2">
          <mxCell style="whiteSpace=wrap;fontSize=17;" vertex="1" parent="dNxyNK7c78bLwvsdeMH5-11">
            <mxGeometry x="250" y="190" width="180" height="70" as="geometry" />
          </mxCell>
        </UserObject>
        <UserObject label="" name="Evan Valet" position="HR Director" location="Office 4" email="me@example.com" placeholders="1" link="https://www.draw.io" id="yGAbrnF77CtUYg8j1XF4-7">
          <mxCell style="" vertex="1" parent="dNxyNK7c78bLwvsdeMH5-11">
            <mxGeometry x="240" y="490" width="180" height="80" as="geometry" />
          </mxCell>
        </UserObject>
        <UserObject label="" name="Evan Valet" position="HR Director" location="Office 4" email="me@example.com" placeholders="1" link="https://www.draw.io" id="yGAbrnF77CtUYg8j1XF4-8">
          <mxCell style="" vertex="1" parent="dNxyNK7c78bLwvsdeMH5-11">
            <mxGeometry x="230" y="500" width="180" height="80" as="geometry" />
          </mxCell>
        </UserObject>
        <UserObject label="" name="Evan Valet" position="HR Director" location="Office 4" email="me@example.com" placeholders="1" link="https://www.draw.io" id="yGAbrnF77CtUYg8j1XF4-9">
          <mxCell style="" vertex="1" parent="dNxyNK7c78bLwvsdeMH5-11">
            <mxGeometry x="220" y="510" width="180" height="80" as="geometry" />
          </mxCell>
        </UserObject>
        <UserObject label="Chargé des données médicales" name="Evan Valet" position="HR Director" location="Office 4" email="me@example.com" placeholders="1" id="yGAbrnF77CtUYg8j1XF4-10">
          <mxCell style="fontSize=17;whiteSpace=wrap;" vertex="1" parent="dNxyNK7c78bLwvsdeMH5-11">
            <mxGeometry x="210" y="520" width="180" height="80" as="geometry" />
          </mxCell>
        </UserObject>
        <mxCell id="yGAbrnF77CtUYg8j1XF4-22" value="" style="endArrow=classic;html=1;rounded=0;edgeStyle=orthogonalEdgeStyle;entryX=1;entryY=0.5;entryDx=0;entryDy=0;" edge="1" parent="dNxyNK7c78bLwvsdeMH5-11" target="dNxyNK7c78bLwvsdeMH5-12">
          <mxGeometry width="50" height="50" relative="1" as="geometry">
            <mxPoint x="530" y="387" as="sourcePoint" />
            <mxPoint x="450" y="365" as="targetPoint" />
          </mxGeometry>
        </mxCell>
        <UserObject label="" name="Evan Valet" position="HR Director" location="Office 4" email="me@example.com" placeholders="1" link="https://www.draw.io" id="yGAbrnF77CtUYg8j1XF4-24">
          <mxCell style="" vertex="1" parent="dNxyNK7c78bLwvsdeMH5-11">
            <mxGeometry x="570" y="310" width="180" height="80" as="geometry" />
          </mxCell>
        </UserObject>
        <UserObject label="" name="Evan Valet" position="HR Director" location="Office 4" email="me@example.com" placeholders="1" link="https://www.draw.io" id="yGAbrnF77CtUYg8j1XF4-25">
          <mxCell style="" vertex="1" parent="dNxyNK7c78bLwvsdeMH5-11">
            <mxGeometry x="560" y="320" width="180" height="80" as="geometry" />
          </mxCell>
        </UserObject>
        <UserObject label="" name="Evan Valet" position="HR Director" location="Office 4" email="me@example.com" placeholders="1" link="https://www.draw.io" id="yGAbrnF77CtUYg8j1XF4-26">
          <mxCell style="" vertex="1" parent="dNxyNK7c78bLwvsdeMH5-11">
            <mxGeometry x="550" y="330" width="180" height="80" as="geometry" />
          </mxCell>
        </UserObject>
        <UserObject label="" name="Evan Valet" position="HR Director" location="Office 4" email="me@example.com" placeholders="1" link="https://www.draw.io" id="yGAbrnF77CtUYg8j1XF4-27">
          <mxCell style="" vertex="1" parent="dNxyNK7c78bLwvsdeMH5-11">
            <mxGeometry x="540" y="340" width="180" height="80" as="geometry" />
          </mxCell>
        </UserObject>
        <UserObject label="Responsable d&#39;activités" name="Evan Valet" position="HR Director" location="Office 4" email="me@example.com" placeholders="1" id="yGAbrnF77CtUYg8j1XF4-28">
          <mxCell style="fontSize=17;whiteSpace=wrap;" vertex="1" parent="dNxyNK7c78bLwvsdeMH5-11">
            <mxGeometry x="530" y="350" width="180" height="80" as="geometry" />
          </mxCell>
        </UserObject>
        <mxCell id="yGAbrnF77CtUYg8j1XF4-29" value="" style="edgeStyle=orthogonalEdgeStyle;rounded=0;orthogonalLoop=1;jettySize=auto;html=1;" edge="1" target="yGAbrnF77CtUYg8j1XF4-30" source="yGAbrnF77CtUYg8j1XF4-2" parent="dNxyNK7c78bLwvsdeMH5-11">
          <mxGeometry relative="1" as="geometry">
            <mxPoint x="380" y="60" as="sourcePoint" />
          </mxGeometry>
        </mxCell>
        <UserObject label="Référent médical projet (PMR)" name="Tessa Miller" position="CFO" location="Office 1" email="me@example.com" placeholders="1" id="yGAbrnF77CtUYg8j1XF4-30">
          <mxCell style="whiteSpace=wrap;fontSize=17;" vertex="1" parent="dNxyNK7c78bLwvsdeMH5-11">
            <mxGeometry x="250" y="40" width="180" height="70" as="geometry" />
          </mxCell>
        </UserObject>
        <mxCell id="yGAbrnF77CtUYg8j1XF4-31" value="" style="endArrow=classic;html=1;rounded=0;edgeStyle=orthogonalEdgeStyle;entryX=1;entryY=0.5;entryDx=0;entryDy=0;exitX=0.5;exitY=1;exitDx=0;exitDy=0;" edge="1" parent="dNxyNK7c78bLwvsdeMH5-11" source="yGAbrnF77CtUYg8j1XF4-28" target="dNxyNK7c78bLwvsdeMH5-16">
          <mxGeometry width="50" height="50" relative="1" as="geometry">
            <mxPoint x="620" y="546" as="sourcePoint" />
            <mxPoint x="520" y="534" as="targetPoint" />
            <Array as="points">
              <mxPoint x="620" y="520" />
            </Array>
          </mxGeometry>
        </mxCell>
        <mxCell id="yGAbrnF77CtUYg8j1XF4-32" value="" style="endArrow=classic;html=1;rounded=0;edgeStyle=orthogonalEdgeStyle;exitX=1;exitY=1;exitDx=0;exitDy=0;" edge="1" parent="dNxyNK7c78bLwvsdeMH5-11" source="dNxyNK7c78bLwvsdeMH5-16">
          <mxGeometry width="50" height="50" relative="1" as="geometry">
            <mxPoint x="710" y="530.0000000000002" as="sourcePoint" />
            <mxPoint x="650" y="430" as="targetPoint" />
            <Array as="points">
              <mxPoint x="430" y="550" />
              <mxPoint x="650" y="550" />
            </Array>
          </mxGeometry>
        </mxCell>
      </root>
    </mxGraphModel>
  </diagram>
</mxfile>
